<?xml version="1.0" encoding="UTF-8" standalone="no"?>
<svg xmlns:rdf="http://www.w3.org/1999/02/22-rdf-syntax-ns#" xmlns="http://www.w3.org/2000/svg" version="1.1" xmlns:cc="http://creativecommons.org/ns#" xmlns:dc="http://purl.org/dc/elements/1.1/" viewBox="0 0 64 64">
 <path fill="#fff" d="m11.4 0c-6.29 0-11.4 5.11-11.4 11.4v41.2c0 6.3 5.11 11.4 11.4 11.4h41.2c6.3 0 11.4-5.1 11.4-11.4v-41.2c0-6.29-5.1-11.4-11.4-11.4h-41.2z"/>
 <path d="m11.4 0c-6.29 0-11.4 5.11-11.4 11.4v41.2c0 6.3 5.11 11.4 11.4 11.4h41.2c6.3 0 11.4-5.1 11.4-11.4v-41.2c0-6.29-5.1-11.4-11.4-11.4h-41.2zm0 4h41.2c4.1 0 7.4 3.25 7.4 7.4v41.2c0 4.1-3.3 7.4-7.4 7.4h-41.2c-4.15 0-7.4-3.3-7.4-7.4v-41.2c0-4.15 3.25-7.4 7.4-7.4z"/>
 <path d="m23.7 21.3h-4.27q1.2-5 4.5-7.6 3.3-2.7 7.8-2.7 3.27 0 6.09 1.44 2.85 1.41 4.38 3.83 1.57 2.42 1.57 5.06 0 5.17-5.38 8.18 3.02 1.17 4.95 3.43 2.6 3.2 2.6 7.2 0 3.4-1.88 6.5-1.88 3.07-5.12 4.76-3.2 1.6-7.3 1.6-5.4 0-9-3t-4.7-8.7h4.1q1.08 3.89 3.1 5.63 2.59 2.2 6.6 2.2 4.55 0 7.31-2.61t2.76-6.12q0-2.34-1.39-4.38-1.37-2.04-3.7-3.07-2.3-1.03-7.17-1.28v-3.67q2.87 0 5.24-0.951 2.36-0.979 3.41-2.47 1.08-1.5 1.08-3.26 0-2.61-2.19-4.51-2.16-1.9-5.49-1.9-2.7 0-4.67 1.47-1.96 1.44-3.33 4.92z"/>
</svg>
